Coordinates
version=1
nRows=7
nColumns=63
inDegrees=yes

Units are S.I. units (second, meters, Newtons, ...)
If the header above contains a line with 'inDegrees', this indicates whether rotational values are in degrees (yes) or radians (no).

endheader
time	pelvis_tilt	pelvis_list	pelvis_rotation	pelvis_tx	pelvis_ty	pelvis_tz	hip_flexion_r	hip_adduction_r	hip_rotation_r	knee_angle_r	knee_angle_r_beta	ankle_angle_r	subtalar_angle_r	mtp_angle_r	hip_flexion_l	hip_adduction_l	hip_rotation_l	knee_angle_l	knee_angle_l_beta	ankle_angle_l	subtalar_angle_l	mtp_angle_l	L5_S1_Flex_Ext	L5_S1_Lat_Bending	L5_S1_axial_rotation	L4_L5_Flex_Ext	L4_L5_Lat_Bending	L4_L5_axial_rotation	L3_L4_Flex_Ext	L3_L4_Lat_Bending	L3_L4_axial_rotation	L2_L3_Flex_Ext	L2_L3_Lat_Bending	L2_L3_axial_rotation	L1_L2_Flex_Ext	L1_L2_Lat_Bending	L1_L2_axial_rotation	L1_T12_Flex_Ext	L1_T12_Lat_Bending	L1_T12_axial_rotation	Abs_r3	Abs_r2	Abs_r1	Abs_t1	Abs_t2	neck_flexion	neck_bending	neck_rotation	arm_flex_r	arm_add_r	arm_rot_r	elbow_flex_r	pro_sup_r	wrist_flex_r	wrist_dev_r	arm_flex_l	arm_add_l	arm_rot_l	elbow_flex_l	pro_sup_l	wrist_flex_l	wrist_dev_l
      6.51666667	     -0.61308808	      4.27161330	     89.77848810	      0.12905795	      0.96356866	      0.55134163	     -1.61794967	     -2.72377933	     -9.22587957	     23.76880747	      0.41484395	     32.03913605	      1.16088047	      0.00000000	     -4.60092654	      1.49514604	      0.75990484	     12.82362140	      0.22381442	     33.41556448	      6.36654187	      0.00000000	     -0.01384511	      0.62457507	     -2.08916587	     -0.02571176	      0.83068484	     -2.21973874	     -0.02274613	      1.51859181	     -2.21973874	     -0.01582358	      1.51859181	     -1.82802014	     -0.01285657	      1.27363347	     -1.69744727	     -0.00791110	      0.96746678	     -1.56687440	     -0.09889425	      7.06531806	    -11.61931384	      0.00000000	      0.00000000	      7.30245895	      0.87141817	     13.35517795	     51.67436386	      5.83297558	     36.08815602	     78.43917310	     89.09874262	     23.03810821	      1.50182087	     83.84859556	    -17.14081004	    102.47706471	     40.96213177	     74.09240552	     37.05167857	     -4.95260721
      6.53333333	     -0.73048264	      4.43254579	     89.79333076	      0.12916349	      0.96395373	      0.55076328	     -1.74693607	     -2.85687256	     -9.17506913	     23.80739487	      0.41551743	     32.16999921	      1.19593695	      0.00000000	     -4.87471260	      1.61908664	      0.96644320	     12.64226903	      0.22064922	     33.36131288	      6.33994792	      0.00000000	     -0.01506758	      0.61588668	     -2.11132892	     -0.02798200	      0.81912928	     -2.24328698	     -0.02475452	      1.49746687	     -2.24328698	     -0.01722073	      1.49746687	     -1.84741280	     -0.01399175	      1.25591612	     -1.71545475	     -0.00860961	      0.95400847	     -1.58349669	     -0.10762620	      6.96703329	    -11.74257805	      0.00000000	      0.00000000	      7.45155266	      1.65740271	     13.58718144	     50.44646070	      6.61213477	     34.60644288	     77.66006139	     89.05438377	     18.75318950	      0.78255449	     83.82876791	    -17.47175651	    102.42680561	     41.47632523	     74.46628340	     37.58543490	     -5.05961162
      6.55000000	     -0.57817888	      4.56789844	     89.74096147	      0.12906258	      0.96431459	      0.54985907	     -1.88836021	     -2.72439627	     -9.09275417	     23.76943820	      0.41485496	     32.19640093	      1.29963791	      0.00000000	     -5.13664793	      1.46173466	      0.99280937	     12.53363035	      0.21875312	     33.28852902	      6.30693149	      0.00000000	     -0.00563081	      0.64699047	     -2.11765969	     -0.01045699	      0.86049732	     -2.25001342	     -0.00925087	      1.57309263	     -2.25001342	     -0.00643546	      1.57309263	     -1.85295223	     -0.00522877	      1.31934296	     -1.72059850	     -0.00321745	      1.00218824	     -1.58824476	     -0.04022035	      7.31888559	    -11.77778788	      0.00000000	      0.00000000	      7.77779344	      1.85393813	     13.76964306	     49.37760136	      7.51250115	     32.70826848	     76.63863073	     88.84943660	     17.31010610	      0.69940181	     83.66736424	    -17.57537750	    102.45874365	     41.69179902	     74.42592763	     37.70815821	     -5.15565706
      6.56666667	     -0.69639710	      4.77721434	     89.91713386	      0.12887182	      0.96469197	      0.54846104	     -2.24502886	     -2.82152884	     -9.09845945	     23.58211397	      0.41158553	     32.29270914	      1.19737602	      0.00000000	     -5.57669607	      1.57120463	      1.35508057	     12.27627891	      0.21426149	     32.96124577	      6.11934523	      0.00000000	      0.00603620	      0.64270872	     -2.16684833	      0.01120983	      0.85480259	     -2.30227635	      0.00991687	      1.56268197	     -2.30227635	      0.00689877	      1.56268197	     -1.89599229	      0.00560522	      1.31061161	     -1.76056427	      0.00344908	      0.99555580	     -1.62513625	      0.04311597	      7.27044954	    -12.05136036	      0.00000000	      0.00000000	      7.90250362	      2.66178145	     14.46241307	     48.64510066	      7.60071106	     32.91298114	     76.25641426	     88.91876955	     10.18883355	     -1.37193158	     83.62870213	    -17.79196782	    102.81909120	     42.06121085	     74.34459655	     37.97274675	     -5.46484198
      6.58333333	     -0.60298685	      4.94393077	     90.00516152	      0.12857430	      0.96502115	      0.54703419	     -2.55576484	     -2.72244679	     -9.06539801	     23.38165589	      0.40808688	     32.29000623	      1.27045595	      0.00000000	     -5.96115151	      1.45312215	      1.46112508	     12.08227847	      0.21087554	     32.73545588	      6.11289755	      0.00000000	      0.01848472	      0.66542129	     -2.16893562	      0.03432797	      0.88501032	     -2.30449409	      0.03036854	      1.61790532	     -2.30449409	      0.02112619	      1.61790532	     -1.89781867	      0.01716491	      1.35692709	     -1.76226019	      0.01056217	      1.03073758	     -1.62670171	      0.13203450	      7.52737871	    -12.06296923	      0.00000000	      0.00000000	      8.26374150	      3.04816372	     14.66486718	     48.03299848	      7.83527055	     31.90783834	     75.74009301	     88.91518515	      9.39349623	     -1.81732387	     83.44581167	    -17.72152959	    102.78650925	     42.20261199	     74.27899279	     38.01569557	     -5.60301070
      6.60000000	     -0.59915926	      5.01127411	     90.09807066	      0.12795160	      0.96513874	      0.54575072	     -2.67124372	     -2.75260804	     -8.98795604	     23.37096303	      0.40790025	     32.32840813	      1.31140101	      0.00000000	     -6.12641204	      1.45000235	      1.48869702	     12.10226390	      0.21122435	     32.60797886	      6.13384866	      0.00000000	      0.04409032	      0.67986904	     -2.16905371	      0.08188013	      0.90422582	     -2.30461957	      0.07243598	      1.65303358	     -2.30461957	      0.05039082	      1.65303358	     -1.89792200	      0.04094227	      1.38638895	     -1.76235614	      0.02519321	      1.05311714	     -1.62679028	      0.31493273	      7.69081456	    -12.06362603	      0.00000000	      0.00000000	      8.43351239	      3.14782293	     14.67098872	     47.94394398	      7.62212356	     31.63911335	     75.37114975	     88.92802674	      9.24685851	     -1.84559353	     83.30231297	    -17.59807369	    102.79794607	     42.32825012	     74.27112386	     38.04170619	     -5.63817192
      6.61666667	     -0.44513633	      5.22287560	     90.45008655	      0.12715866	      0.96567385	      0.54460902	     -3.21284911	     -2.58277160	     -9.40394334	     22.89193168	      0.39953958	     32.29766114	      1.77161725	      0.00000000	     -6.60671374	      1.36000622	      2.97977162	     11.74594784	      0.20500546	     32.15222757	      4.70663991	      0.00000000	      0.03666631	      0.69948003	     -2.18102256	      0.06809301	      0.93030844	     -2.31733647	      0.06023909	      1.70071574	     -2.31733647	      0.04190593	      1.70071574	     -1.90839474	      0.03404834	      1.42637967	     -1.77208083	      0.02095113	      1.08349456	     -1.63576692	      0.26190382	      7.91265797	    -12.13019316	      0.00000000	      0.00000000	      8.84358165	      3.62280188	     14.43484357	     47.69775688	      7.22015814	     31.93359468	     74.98912970	     89.07127340	      6.04635451	     -5.06505488	     82.92588079	    -17.09186977	    102.12130326	     41.87631598	     75.75480963	     37.93107563	     -6.48687190
